<?xml version="1.0" standalone="no"?>
<!DOCTYPE svg PUBLIC "-//W3C//DTD SVG 20010904//EN"
 "http://www.w3.org/TR/2001/REC-SVG-20010904/DTD/svg10.dtd">
<svg version="1.0" xmlns="http://www.w3.org/2000/svg"
 width="512.000000pt" height="512.000000pt" viewBox="0 0 512.000000 512.000000"
 preserveAspectRatio="xMidYMid meet">
<metadata>
Created by potrace 1.11, written by Peter Selinger 2001-2013
</metadata>
<g transform="translate(0.000000,512.000000) scale(0.100000,-0.100000)"
fill="#000000" stroke="none">
<path d="M923 4239 c-12 -4 -29 -21 -37 -36 -18 -37 -36 10 324 -883 160 -399
293 -732 295 -740 4 -15 137 -345 155 -385 5 -11 67 -166 138 -345 71 -179
133 -334 137 -345 5 -11 9 -22 10 -25 1 -3 7 -16 12 -30 6 -14 27 -65 46 -115
20 -49 44 -108 53 -130 10 -22 18 -42 18 -45 1 -3 13 -34 28 -70 14 -36 37
-91 49 -124 25 -61 58 -96 87 -91 9 2 21 4 27 4 5 1 170 162 367 358 l357 357
286 -286 c158 -158 295 -294 304 -303 32 -28 65 -27 102 3 67 54 441 436 450
459 5 13 5 32 0 45 -5 13 -144 157 -308 321 l-299 298 353 353 c251 250 356
362 363 385 16 57 -4 68 -400 226 -201 80 -374 150 -385 155 -11 5 -243 97
-515 206 -272 108 -509 202 -525 209 -28 13 -171 70 -285 115 -25 9 -283 113
-575 230 -593 238 -601 241 -632 229z m522 -349 c182 -73 341 -137 355 -143
14 -5 30 -11 35 -13 9 -2 496 -198 565 -227 14 -5 30 -11 35 -13 9 -2 283
-113 330 -133 11 -5 63 -26 115 -46 52 -21 109 -43 125 -51 17 -7 118 -47 225
-89 191 -75 224 -89 285 -115 17 -7 35 -14 40 -16 14 -3 284 -112 322 -129 17
-8 34 -15 38 -15 4 0 21 -6 38 -14 18 -7 43 -18 56 -23 23 -9 8 -26 -306 -340
-182 -181 -338 -342 -348 -356 -10 -17 -15 -36 -11 -51 3 -13 141 -159 307
-326 l301 -302 -59 -61 c-32 -34 -104 -107 -160 -161 l-102 -99 -297 297
c-163 163 -305 301 -316 307 -13 7 -29 7 -48 0 -16 -5 -170 -151 -364 -345
-232 -232 -337 -331 -343 -323 -5 7 -73 174 -152 372 -78 198 -150 374 -159
390 -9 17 -16 32 -15 35 0 3 -4 16 -9 30 -19 51 -140 356 -149 375 -4 11 -18
45 -29 75 -21 57 -23 62 -59 142 -12 26 -21 54 -21 61 0 7 -4 17 -8 22 -5 6
-19 37 -32 70 -12 33 -28 74 -35 90 -7 17 -29 73 -50 125 -20 52 -41 104 -45
115 -5 11 -23 56 -40 100 -18 44 -42 105 -55 135 -12 30 -53 132 -90 225 -86
220 -81 206 -94 235 -19 43 -112 274 -114 287 -2 7 -6 16 -10 19 -12 12 -8 26
6 21 6 -3 161 -64 342 -137z"/>
<path d="M1433 3694 c-7 -3 -13 -15 -13 -25 0 -17 84 -237 135 -354 8 -16 90
-223 185 -460 94 -236 178 -445 186 -463 8 -18 17 -40 19 -50 3 -14 65 -170
95 -237 5 -11 57 -141 116 -290 59 -148 111 -276 117 -282 13 -18 42 -16 57 2
11 13 8 28 -14 88 -15 40 -32 81 -37 92 -11 25 -529 1316 -533 1330 -4 14 -12
32 -144 360 -120 298 -125 307 -169 289z"/>
</g>
</svg>
